<svg version="1" xmlns="http://www.w3.org/2000/svg" width="682.667" height="682.667" viewBox="0 0 512.000000 512.000000"><path d="M73 62.6c-5 2.2-8.9 6.1-11.6 11.9l-2.4 5v311l2.4 5c1.3 2.7 3.6 6.2 5.2 7.7 5.7 5.3 8.4 5.8 32.2 5.8h21.9l.6 26.2c.4 14.5.7 32.7.7 40.5 0 7.9.3 14.3.8 14.3.4 0 22.5-18.3 49.1-40.5l48.3-40.5h109.5c120.8 0 112.4.4 119.3-6.3 1.8-1.8 4.3-5.2 5.4-7.7l2.1-4.5v-311l-2.1-4.5c-2.4-5.2-7.2-10.2-11.9-12.5-2.9-1.3-23.1-1.5-184.7-1.5-159.7.1-181.7.3-184.8 1.6zm351 171.9V378l-166 .1c-91.3.1-166.6.2-167.2.3-1 .1-1.4-29.4-1.6-143.7L89 91h335v143.5z"/><path d="M161 211v40h53.8l-.5 4.7c-.6 6.8-3 12.9-6.7 17.1-3.4 3.9-12.7 8.7-18.7 9.7-3.8.7-3.9.8-3.9 4.9 0 2.4-.3 7.8-.7 12l-.6 7.7 3.9-.6c2.1-.4 7.4-1.5 11.7-2.6 25.1-6.2 40.1-24.2 40.8-48.9.1-3.6.1-23.9 0-45.3L240 171h-79v40zM273 211v40h53v4c0 4.8-2.5 12.4-5.3 16.2-3.2 4.3-8.9 7.8-16.9 10.2l-7.3 2.3-.3 11.6c-.1 6.4-.1 11.7.1 11.7 2.4 0 13.9-2.7 19.9-4.6 18-5.9 29.7-18 34.2-35.6 1.7-6.8 1.8-7.9 1.7-57.1L352 171h-79v40z"/></svg>